<?xml version="1.0" encoding="UTF-8"?>
<!DOCTYPE svg PUBLIC "-//W3C//DTD SVG 1.1//EN" "http://www.w3.org/Graphics/SVG/1.1/DTD/svg11.dtd">
<svg xmlns="http://www.w3.org/2000/svg" version="1.1" width="512px" height="512px" style="shape-rendering:geometricPrecision; text-rendering:geometricPrecision; image-rendering:optimizeQuality; fill-rule:evenodd; clip-rule:evenodd" xmlns:xlink="http://www.w3.org/1999/xlink">
<g><path style="opacity:0.986" fill="#010202" d="M 3.5,-0.5 C 6.5,-0.5 9.5,-0.5 12.5,-0.5C 39.5279,28.1929 66.5279,56.8596 93.5,85.5C 93.9149,90.503 92.2482,94.6696 88.5,98C 97.3683,107.036 106.368,115.869 115.5,124.5C 118.22,127.678 119.054,131.345 118,135.5C 115.665,138.665 113.165,141.665 110.5,144.5C 108.704,145.793 107.037,147.293 105.5,149C 121.062,163.894 135.896,179.394 150,195.5C 151.368,198.738 151.701,202.072 151,205.5C 146.984,213.194 143.817,221.194 141.5,229.5C 144.487,244.161 153.154,249.328 167.5,245C 175.277,241.695 183.11,238.528 191,235.5C 193.026,236.52 194.359,238.187 195,240.5C 196.674,244.021 197.84,247.687 198.5,251.5C 187.896,255.424 177.229,259.258 166.5,263C 144.601,265.297 130.768,255.797 125,234.5C 124.333,230.833 124.333,227.167 125,223.5C 126.833,216.831 129.5,210.498 133,204.5C 133.667,203.167 133.667,201.833 133,200.5C 119.986,187.319 106.819,174.319 93.5,161.5C 88.7757,166.229 83.7757,170.563 78.5,174.5C 76.1768,175.582 73.8435,175.415 71.5,174C 62.1667,164.667 52.8333,155.333 43.5,146C 40.4682,147.254 37.3015,148.421 34,149.5C 31.2682,149.385 28.7682,148.552 26.5,147C 17.3325,139.331 8.33249,131.497 -0.5,123.5C -0.5,83.5 -0.5,43.5 -0.5,3.5C 1.16667,2.5 2.5,1.16667 3.5,-0.5 Z"/></g>
<g><path style="opacity:1" fill="#4296ce" d="M 16.5,29.5 C 35.4838,49.1523 54.1505,69.1523 72.5,89.5C 59.8061,103.028 46.6394,116.028 33,128.5C 27.3879,124.559 22.0546,120.226 17,115.5C 16.5,86.8353 16.3334,58.1686 16.5,29.5 Z"/></g>
<g><path style="opacity:0.966" fill="#010101" d="M 385.5,333.5 C 382.781,332.087 379.781,331.42 376.5,331.5C 378.744,313.809 381.244,296.142 384,278.5C 415.83,230.514 429.163,177.847 424,120.5C 417.543,94.5665 402.71,75.2332 379.5,62.5C 365.988,54.6816 351.321,50.6816 335.5,50.5C 329.794,50.5686 324.127,51.0686 318.5,52C 308.311,54.7609 298.311,58.0943 288.5,62C 266.13,67.9788 243.796,67.9788 221.5,62C 179.237,42.072 141.404,48.2387 108,80.5C 105.914,77.9061 103.414,75.9061 100.5,74.5C 97.5043,73.0263 96.0043,70.693 96,67.5C 123.527,39.8808 156.693,29.0475 195.5,35C 208.587,38.7097 221.587,42.7097 234.5,47C 248.5,50.3333 262.5,50.3333 276.5,47C 289.409,42.7127 302.409,38.7127 315.5,35C 360.312,28.3731 396.479,42.8731 424,78.5C 440.386,103.421 446.72,130.754 443,160.5C 439.363,205.411 425.363,246.744 401,284.5C 398.318,300.772 396.152,317.105 394.5,333.5C 391.5,333.5 388.5,333.5 385.5,333.5 Z"/></g>
<g><path style="opacity:1" fill="#e5e5e5" d="M 379.5,62.5 C 363.861,97.1248 343.695,128.791 319,157.5C 265.164,215.836 201.997,261.17 129.5,293.5C 128.476,288.545 127.643,283.545 127,278.5C 109.945,252.721 98.1113,224.721 91.5,194.5C 88.1194,194.46 84.7861,194.793 81.5,195.5C 80.1751,188.55 79.1751,181.55 78.5,174.5C 83.7757,170.563 88.7757,166.229 93.5,161.5C 106.819,174.319 119.986,187.319 133,200.5C 133.667,201.833 133.667,203.167 133,204.5C 129.5,210.498 126.833,216.831 125,223.5C 124.333,227.167 124.333,230.833 125,234.5C 130.768,255.797 144.601,265.297 166.5,263C 177.229,259.258 187.896,255.424 198.5,251.5C 197.84,247.687 196.674,244.021 195,240.5C 194.359,238.187 193.026,236.52 191,235.5C 183.11,238.528 175.277,241.695 167.5,245C 153.154,249.328 144.487,244.161 141.5,229.5C 143.817,221.194 146.984,213.194 151,205.5C 151.701,202.072 151.368,198.738 150,195.5C 135.896,179.394 121.062,163.894 105.5,149C 107.037,147.293 108.704,145.793 110.5,144.5C 110.5,147.167 110.5,149.833 110.5,152.5C 116.167,152.5 121.833,152.5 127.5,152.5C 127.08,133.172 134.747,118.006 150.5,107C 154.474,104.398 158.807,102.898 163.5,102.5C 162.372,96.859 161.372,91.1924 160.5,85.5C 142.879,89.3954 129.379,99.0621 120,114.5C 118.211,117.741 116.711,121.074 115.5,124.5C 106.368,115.869 97.3683,107.036 88.5,98C 92.2482,94.6696 93.9149,90.503 93.5,85.5C 95.5836,81.6641 97.917,77.9974 100.5,74.5C 103.414,75.9061 105.914,77.9061 108,80.5C 141.404,48.2387 179.237,42.072 221.5,62C 243.796,67.9788 266.13,67.9788 288.5,62C 298.311,58.0943 308.311,54.7609 318.5,52C 324.127,51.0686 329.794,50.5686 335.5,50.5C 351.321,50.6816 365.988,54.6816 379.5,62.5 Z"/></g>
<g><path style="opacity:1" fill="#e6e6e6" d="M 379.5,62.5 C 402.71,75.2332 417.543,94.5665 424,120.5C 429.163,177.847 415.83,230.514 384,278.5C 381.244,296.142 378.744,313.809 376.5,331.5C 379.781,331.42 382.781,332.087 385.5,333.5C 384.074,343.483 382.741,353.483 381.5,363.5C 379.913,366.268 378.08,368.935 376,371.5C 375.333,373.833 375.333,376.167 376,378.5C 377.094,380.078 377.928,381.745 378.5,383.5C 378.167,386.833 377.833,390.167 377.5,393.5C 372.504,398.664 367.671,403.997 363,409.5C 359.251,413.756 355.084,417.422 350.5,420.5C 343.706,417.179 336.706,414.346 329.5,412C 321.083,410.361 312.75,409.195 304.5,408.5C 303.616,403.196 302.949,397.863 302.5,392.5C 304.905,391.232 307.572,390.565 310.5,390.5C 304.875,353.749 298.708,317.083 292,280.5C 280.596,258.476 263.096,251.309 239.5,259C 228.699,264.465 221.532,272.965 218,284.5C 208.99,338.896 199.656,393.229 190,447.5C 183.166,459.334 173.333,462.834 160.5,458C 154.673,454.842 151.173,450.008 150,443.5C 142.709,393.548 135.875,343.548 129.5,293.5C 201.997,261.17 265.164,215.836 319,157.5C 343.695,128.791 363.861,97.1248 379.5,62.5 Z"/></g>
<g><path style="opacity:1" fill="#e6e6e6" d="M 110.5,144.5 C 113.165,141.665 115.665,138.665 118,135.5C 119.054,131.345 118.22,127.678 115.5,124.5C 116.711,121.074 118.211,117.741 120,114.5C 129.379,99.0621 142.879,89.3954 160.5,85.5C 161.372,91.1924 162.372,96.859 163.5,102.5C 158.807,102.898 154.474,104.398 150.5,107C 134.747,118.006 127.08,133.172 127.5,152.5C 121.833,152.5 116.167,152.5 110.5,152.5C 110.5,149.833 110.5,147.167 110.5,144.5 Z"/></g>
<g><path style="opacity:1" fill="#e6e6e6" d="M 178.5,84.5 C 184.167,84.5 189.833,84.5 195.5,84.5C 195.5,90.1667 195.5,95.8333 195.5,101.5C 189.833,101.5 184.167,101.5 178.5,101.5C 178.5,95.8333 178.5,90.1667 178.5,84.5 Z"/></g>
<g><path style="opacity:1" fill="#a0d7e8" d="M 75.5,110.5 C 83.578,117.073 91.2447,124.24 98.5,132C 91.319,139.348 83.9857,146.515 76.5,153.5C 69.0143,146.515 61.681,139.348 54.5,132C 61.7026,124.965 68.7026,117.798 75.5,110.5 Z"/></g>
<g><path style="opacity:0.967" fill="#020202" d="M 129.5,293.5 C 135.875,343.548 142.709,393.548 150,443.5C 151.173,450.008 154.673,454.842 160.5,458C 173.333,462.834 183.166,459.334 190,447.5C 199.656,393.229 208.99,338.896 218,284.5C 221.532,272.965 228.699,264.465 239.5,259C 263.096,251.309 280.596,258.476 292,280.5C 298.708,317.083 304.875,353.749 310.5,390.5C 307.572,390.565 304.905,391.232 302.5,392.5C 299.545,393.159 296.545,393.492 293.5,393.5C 287.765,357.759 281.599,322.093 275,286.5C 268.083,273.799 257.916,270.299 244.5,276C 239.748,279.414 236.581,283.914 235,289.5C 226.225,341.148 217.559,392.814 209,444.5C 203.006,468.759 187.506,479.592 162.5,477C 145.021,472.52 134.854,461.353 132,443.5C 124.83,390.143 117.497,336.81 110,283.5C 92.3444,256.849 80.1777,227.849 73.5,196.5C 76.2062,196.425 78.8728,196.092 81.5,195.5C 84.7861,194.793 88.1194,194.46 91.5,194.5C 98.1113,224.721 109.945,252.721 127,278.5C 127.643,283.545 128.476,288.545 129.5,293.5 Z"/></g>
<g><path style="opacity:0.97" fill="#010202" d="M 511.5,251.5 C 511.5,271.167 511.5,290.833 511.5,310.5C 479.395,343.105 447.062,375.605 414.5,408C 411.634,409.457 408.634,409.79 405.5,409C 402.354,406.688 399.354,404.188 396.5,401.5C 388.479,409.188 380.479,416.855 372.5,424.5C 369.521,426.812 366.854,429.479 364.5,432.5C 366.559,435.541 368.559,438.541 370.5,441.5C 379.188,460.897 375.854,478.064 360.5,493C 348.742,502.714 335.408,508.881 320.5,511.5C 311.5,511.5 302.5,511.5 293.5,511.5C 273.545,508.771 257.379,499.438 245,483.5C 232.824,459.697 237.324,439.53 258.5,423C 272.417,413.851 287.75,409.018 304.5,408.5C 312.75,409.195 321.083,410.361 329.5,412C 336.706,414.346 343.706,417.179 350.5,420.5C 355.084,417.422 359.251,413.756 363,409.5C 367.671,403.997 372.504,398.664 377.5,393.5C 379.63,391.873 381.63,390.04 383.5,388C 381.963,386.293 380.296,384.793 378.5,383.5C 377.928,381.745 377.094,380.078 376,378.5C 375.333,376.167 375.333,373.833 376,371.5C 378.08,368.935 379.913,366.268 381.5,363.5C 420.299,325.201 458.965,286.701 497.5,248C 503.278,245.267 507.944,246.434 511.5,251.5 Z"/></g>
<g><path style="opacity:1" fill="#4296ce" d="M 493.5,276.5 C 494.657,285.324 494.824,294.324 494,303.5C 465.667,331.833 437.333,360.167 409,388.5C 404.5,384 400,379.5 395.5,375C 428.368,342.299 461.035,309.465 493.5,276.5 Z"/></g>
<g><path style="opacity:0.977" fill="#dadada" d="M 372.5,424.5 C 372.393,430.248 371.726,435.915 370.5,441.5C 368.559,438.541 366.559,435.541 364.5,432.5C 366.854,429.479 369.521,426.812 372.5,424.5 Z"/></g>
<g><path style="opacity:1" fill="#a0d8e9" d="M 294.5,426.5 C 313.494,424.129 330.828,428.296 346.5,439C 359.828,451.101 360.994,464.267 350,478.5C 336.706,489.877 321.206,495.21 303.5,494.5C 290.199,494.011 278.199,489.844 267.5,482C 250.913,466.213 251.579,451.213 269.5,437C 277.318,432.013 285.651,428.513 294.5,426.5 Z"/></g>
</svg>
